<?xml version="1.0" encoding="utf-8"?>
<!-- Generator: Adobe Illustrator 23.1.1, SVG Export Plug-In . SVG Version: 6.00 Build 0)  -->
<svg version="1.1" id="Layer_1" xmlns="http://www.w3.org/2000/svg" xmlns:xlink="http://www.w3.org/1999/xlink" x="0px" y="0px"
	 viewBox="0 0 200 100" style="enable-background:new 0 0 200 100;" xml:space="preserve">
<style type="text/css">
	.st0{fill:#BCBEC0;}
</style>
<path class="st0" d="M61.5,32.6V21.4c0-3.2-0.8-3.9-4.1-3.9h-6.9c-3.2,0-4.1,0.7-4.1,3.9v57.8c0,3.2,0.8,3.9,4.1,3.9h6.9
	c3.2,0,4.1-0.7,4.1-3.9V58.5h-6.8V49h19.1v31.7c0,7.8-3.9,12-12.6,12H46.8c-8.7,0-12.6-4.2-12.6-12V19.8c0-7.7,3.9-11.9,12.6-11.9
	h14.5c8.7,0,12.6,4.2,12.6,11.9v12.9H61.5z"/>
<path class="st0" d="M99.8,7.9v56.9H87.6V7.9H99.8z"/>
<path class="st0" d="M127.3,17.7v20.6h19.5V48h-19.5v16.8H115V7.9h36.9v9.9H127.3z"/>
<g>
	<path class="st0" d="M95.2,84.4c0-0.9-0.2-1.1-1.1-1.1h-2.9c-2.5,0-3.5-1.2-3.5-3.5v-6.4c0-2.2,1.1-3.4,3.6-3.4h3.8
		c2.5,0,3.6,1.2,3.6,3.4V77h-3.5v-3c0-0.9-0.2-1.1-1.2-1.1h-1.6c-0.9,0-1.2,0.2-1.2,1.1v5.4c0,0.9,0.2,1.1,1.2,1.1h2.8
		c2.5,0,3.6,1.2,3.6,3.4v7c0,2.2-1.1,3.4-3.7,3.4h-3.8c-2.5,0-3.6-1.2-3.6-3.4v-3.6h3.5v3c0,0.9,0.2,1.1,1.2,1.1h1.6
		c0.9,0,1.1-0.2,1.1-1.1V84.4z"/>
	<path class="st0" d="M112.8,91.5v2.8h-10.6V70h10.3v2.8h-6.8v7.5h5.6v2.8h-5.6v8.3H112.8z"/>
	<path class="st0" d="M123.6,88.7h-5.1l-0.9,5.6H114l4.3-24.3h5.1l4.6,24.3h-3.5L123.6,88.7z M123.1,85.8L120.9,73l-2,12.8H123.1z"
		/>
	<path class="st0" d="M136,84.5h-1.9v9.8h-3.5V70h8c2.5,0,3.6,1.2,3.6,3.4V81c0,1.9-0.8,3.1-2.6,3.4l3.9,9.9h-3.8L136,84.5z
		 M134.1,81.7h3.4c0.9,0,1.2-0.2,1.2-1.1v-6.6c0-0.9-0.2-1.1-1.2-1.1h-3.4V81.7z"/>
	<path class="st0" d="M153.6,77.6v-3.7c0-0.9-0.2-1.1-1.1-1.1h-2c-0.9,0-1.2,0.2-1.2,1.1v16.6c0,0.9,0.2,1.1,1.2,1.1h2
		c0.9,0,1.1-0.2,1.1-1.1v-3.7h3.6v4.1c0,2.3-1.1,3.5-3.7,3.5h-4.1c-2.5,0-3.6-1.2-3.6-3.5V73.4c0-2.2,1.1-3.4,3.6-3.4h4.1
		c2.5,0,3.7,1.2,3.7,3.4v4.2H153.6z"/>
	<path class="st0" d="M172.8,70v24.3h-3.5V83.6h-5.2v10.7h-3.5V70h3.5v10.8h5.2V70H172.8z"/>
</g>
<rect x="282" y="97.8" style="fill:none;" width="104.5" height="60"/>
<text transform="matrix(1 0 0 1 282.0151 106.3423)" style="font-family:'MyriadPro-Regular'; font-size:12px;">GIF SEARCH</text>
</svg>
