<?xml version="1.0" encoding="utf-8"?>
<!-- Generator: Adobe Illustrator 23.1.1, SVG Export Plug-In . SVG Version: 6.00 Build 0)  -->
<svg version="1.1" id="Layer_1" xmlns="http://www.w3.org/2000/svg" xmlns:xlink="http://www.w3.org/1999/xlink" x="0px" y="0px"
	 viewBox="0 0 200 100" style="enable-background:new 0 0 200 100;" xml:space="preserve">
<style type="text/css">
	.st0{fill:#FBAE45;}
	.st1{fill:#D58A31;}
	.st2{fill:#FFFFFF;}
</style>
<rect x="249.8" y="70" style="fill:none;" width="104.5" height="60"/>
<text transform="matrix(1 0 0 1 249.7572 80.5603)"><tspan x="0" y="0" style="font-family:'SukhumvitSet-Text'; font-size:12px;">GIF</tspan><tspan x="16.9" y="0" style="font-family:'STIXIntegralsSm-Regular'; font-size:12px;"> </tspan><tspan x="19.9" y="0" style="font-family:'Superclarendon-Regular'; font-size:12px;">SEARCH</tspan></text>
<rect x="145.2" y="104.5" style="fill:none;" width="104.5" height="60"/>
<text transform="matrix(1 0 0 1 145.2412 113.052)" style="font-family:'MyriadPro-Regular'; font-size:12px;">GIF SEARCH</text>
<g id="XMLID_970_">
	<circle id="XMLID_870_" class="st0" cx="100" cy="49.6" r="49.6"/>
	<path id="XMLID_921_" class="st1" d="M149.6,49.6c0-0.6,0-1.3,0-1.9l-28.3-28.6c0-0.3-0.3-0.5-0.6-0.5h-6.7c-0.3,0-0.6,0.2-0.6,0.5
		v1.1l1.8,1.2h-1.8v3l-1.6-1.6H79.9c-2.4,0-4.4,2-4.4,4.4v30.1l1.8,1.1h-2.7v14.3l1.8,1.1h-0.9v2.5c0,1.4,0.7,2.7,1.8,3.5
		c0.2,0.2,12.1,12.1,19.3,19.4c1.1,0.1,2.2,0.1,3.4,0.1C127.4,99.3,149.6,77,149.6,49.6z"/>
	<g id="XMLID_78_">
		<path id="XMLID_79_" class="st2" d="M100.2,65.6l8.1-7.1H74.6v14.3h33.7L100.2,65.6z M85.7,68.4c-0.2,0.3-0.6,0.6-1,0.8
			s-1.1,0.3-1.8,0.3c-0.9,0-1.7-0.3-2.3-0.9c-0.6-0.6-0.9-1.4-0.9-2.3v-1.6c0-0.9,0.3-1.7,0.9-2.3c0.6-0.6,1.3-0.9,2.2-0.9
			c0.9,0,1.6,0.2,2.1,0.7c0.5,0.5,0.8,1.1,0.7,1.8l0,0h-1.2c0-0.4-0.1-0.8-0.4-1.1c-0.3-0.3-0.7-0.4-1.2-0.4c-0.5,0-1,0.2-1.3,0.6
			c-0.3,0.4-0.5,0.9-0.5,1.6v1.6c0,0.6,0.2,1.1,0.5,1.6s0.8,0.6,1.4,0.6c0.4,0,0.8,0,1-0.1c0.3-0.1,0.4-0.2,0.6-0.3v-1.6h-1.6v-1
			h2.9V68.4z M89,69.5h-1.3v-7.9H89V69.5z M96.1,62.7h-3.7v2.4h3.2v1h-3.2v3.3h-1.3v-7.8h5L96.1,62.7L96.1,62.7z"/>
		<path id="XMLID_197_" class="st2" d="M124.8,32.4h-3.5v-6.7h-7.8v6.7H110c-0.5,0-0.8,0.5-0.4,0.9l7.4,8.5c0.2,0.2,0.6,0.2,0.8,0
			l7.4-8.5C125.5,32.9,125.3,32.4,124.8,32.4z"/>
		<rect id="XMLID_196_" x="113.5" y="21.4" class="st2" width="7.8" height="3"/>
		<path id="XMLID_195_" class="st2" d="M116.6,43.4v32.2c0,1.9-1.5,3.4-3.4,3.4H80.6c-1.9,0-3.4-1.5-3.4-3.4v-1.8h-1.7v2.5
			c0,2.4,2,4.4,4.4,4.4h33.9c2.4,0,4.4-2,4.4-4.4V43.4c-0.3,0.1-0.5,0.2-0.8,0.2C117.1,43.6,116.8,43.5,116.6,43.4z"/>
		<path id="XMLID_194_" class="st2" d="M77.2,27.9c0-1.9,1.5-3.4,3.4-3.4h31.3v-0.5v-1.2H79.9c-2.4,0-4.4,2-4.4,4.4v30.1h1.7
			L77.2,27.9L77.2,27.9z"/>
		<path id="XMLID_193_" class="st2" d="M108.3,34.2H82.2v2.4h28.2L108.3,34.2C108.4,34.3,108.4,34.3,108.3,34.2z"/>
		<rect id="XMLID_192_" x="82.2" y="38.2" class="st2" width="29.4" height="2.4"/>
		<rect id="XMLID_191_" x="82.2" y="42.1" class="st2" width="29.4" height="2.4"/>
		<rect id="XMLID_190_" x="82.2" y="46" class="st2" width="29.4" height="2.4"/>
		<rect id="XMLID_189_" x="82.2" y="49.9" class="st2" width="23" height="2.4"/>
		<path id="XMLID_188_" class="st2" d="M121.3,19.1c0-0.3-0.3-0.5-0.6-0.5h-6.7c-0.3,0-0.6,0.2-0.6,0.5v1.1h7.8V19.1z"/>
	</g>
</g>
</svg>
